<?xml version="1.0" encoding="UTF-8" standalone="no"?>
<!DOCTYPE svg PUBLIC "-//W3C//DTD SVG 1.0//EN"
"http://www.w3.org/TR/2001/REC-SVG-20010904/DTD/svg10.dtd">
<!-- Created with Inkscape (http://www.inkscape.org/) -->
<svg
   id="svg1"
   sodipodi:version="0.32"
   inkscape:version="0.39"
   xmlns="http://www.w3.org/2000/svg"
   xmlns:sodipodi="http://sodipodi.sourceforge.net/DTD/sodipodi-0.dtd"
   xmlns:inkscape="http://www.inkscape.org/namespaces/inkscape"
   xmlns:xlink="http://www.w3.org/1999/xlink"
   xmlns:rdf="http://www.w3.org/1999/02/22-rdf-syntax-ns#"
   xmlns:cc="http://web.resource.org/cc/"
   xmlns:dc="http://purl.org/dc/elements/1.1/"
   width="640.00000pt"
   height="480.00000pt"
   sodipodi:docbase="/ram"
   sodipodi:docname="drawing.svg">
  <defs
     id="defs3" />
  <sodipodi:namedview
     id="base"
     pagecolor="#ffffff"
     bordercolor="#666666"
     borderopacity="1.0"
     inkscape:pageopacity="0.0"
     inkscape:pageshadow="2"
     inkscape:zoom="0.61399264"
     inkscape:cx="298.15509"
     inkscape:cy="228.58402"
     inkscape:window-width="640"
     inkscape:window-height="533"
     inkscape:window-x="15"
     inkscape:window-y="31" />
  <metadata
     id="metadata4">
    <rdf:RDF
       id="RDF5">
      <cc:Work
         rdf:about=""
         id="Work6">
        <dc:format
           id="format7">image/svg+xml</dc:format>
        <dc:type
           id="type9"
           rdf:resource="http://purl.org/dc/dcmitype/StillImage" />
      </cc:Work>
    </rdf:RDF>
  </metadata>
  <path
     id="path908"
     style="fill:#fa0000;fill-opacity:1.0000000;fill-rule:evenodd;stroke:#000000;stroke-width:1.0000000pt;stroke-linecap:butt;stroke-linejoin:miter;stroke-opacity:1.0000000;"
     d="M 132.33058,160.25531 C 132.33058,141.20876 150.65327,104.72788 150.65327,80.856974 C 153.79186,74.579794 168.97597,54.131224 168.97597,48.283294 C 174.32991,42.929354 186.14611,34.032304 193.40623,34.032304 C 199.20724,28.231294 213.66256,25.888884 221.90820,25.888884 C 228.33773,19.459354 243.39216,25.888884 250.41017,25.888884 C 253.08326,25.888884 274.84043,33.549704 274.84043,36.068164 C 280.81202,36.068164 293.16313,47.143774 293.16313,50.319144 C 299.25968,50.319144 302.31224,66.605984 307.41411,66.605984 C 307.41411,70.202644 315.82741,83.162704 319.62924,86.964534 C 319.62924,94.967434 325.73681,101.71959 325.73681,109.35894 C 325.73681,120.04804 327.77266,124.77240 327.77266,135.82505 C 327.77266,145.32571 327.77266,154.82637 327.77266,164.32702 C 327.77266,171.61719 321.66510,180.15095 321.66510,186.72143 C 321.66510,195.33726 313.52168,201.40271 313.52168,209.11583 C 307.96253,209.11583 305.08317,229.47438 297.23484,229.47438 C 297.23484,237.20258 278.91214,240.32847 278.91214,245.76122 C 274.07747,245.76122 262.99799,253.53196 258.55359,257.97635 C 248.75941,257.97635 242.43172,268.15563 232.08748,268.15563 C 222.55467,268.15563 214.08077,272.22734 203.58551,272.22734 C 193.03878,272.22734 182.44848,269.41301 175.08354,262.04806 C 168.23126,262.04806 152.68913,246.70380 152.68913,241.68951 C 152.68913,235.32694 142.50985,226.97338 142.50985,217.25925 C 139.72699,217.25925 134.36643,196.86724 134.36643,194.86485 C 134.36643,180.89332 132.33058,174.06700 132.33058,160.25531 z M 181.19110,196.90070 C 181.19110,191.23748 177.11939,174.67146 177.11939,162.29117 C 177.11939,157.11580 179.25208,135.82505 183.22696,135.82505 C 183.22696,130.61192 191.52232,107.32308 195.44209,107.32308 C 195.44209,100.07803 206.63221,93.072104 213.76478,93.072104 C 222.23855,93.072104 230.04759,89.000394 240.23090,89.000394 C 255.22224,89.000394 256.09240,90.610904 266.69701,101.21552 C 266.69701,107.32293 276.87629,118.09214 276.87629,125.64578 C 276.87629,133.82535 278.91214,144.66814 278.91214,154.14775 C 278.91214,158.57382 277.76541,184.68557 274.84043,184.68557 C 274.84043,192.31417 270.39774,205.04412 264.66116,205.04412 C 264.66116,211.48970 248.37432,214.32291 248.37432,219.29511 C 237.88046,219.29511 229.31578,223.36682 217.83649,223.36682 C 206.76462,223.36682 199.66765,215.22340 193.40623,215.22340 C 186.81514,208.63230 184.34056,209.49853 181.19110,196.90070 z " />
  <path
     id="path910"
     style="fill:#fa0000;fill-opacity:1.0000000;fill-rule:evenodd;stroke:#000000;stroke-width:1.0000000pt;stroke-linecap:butt;stroke-linejoin:miter;stroke-opacity:1.0000000;"
     d="M 490.64106,148.04018 C 490.64106,134.98736 496.25046,100.17599 504.89205,82.892824 C 504.89205,69.325564 515.40910,64.232354 523.21474,56.426714 C 528.46797,56.426714 549.56954,44.322894 553.75257,40.139874 C 559.05260,40.139874 584.65744,31.629404 588.36211,27.924744 C 600.68217,27.924744 613.91476,29.960594 625.00750,29.960594 C 633.03682,37.989914 641.63623,42.517624 649.43776,50.319144 C 655.56181,56.443204 663.68874,74.380314 663.68874,82.892824 C 663.68874,98.698864 671.83216,112.75055 671.83216,129.71749 C 678.12844,136.01377 673.86802,161.16335 673.86802,170.43459 C 673.86802,178.84806 665.32038,195.26907 659.61703,200.97241 C 659.61703,209.83407 646.11122,224.65750 641.29434,229.47438 C 641.29434,234.67921 627.19263,245.76122 622.97164,245.76122 C 617.02452,251.70835 603.15858,251.86879 594.46967,251.86879 C 584.34073,251.86879 572.75042,249.83293 563.93185,249.83293 C 553.02603,249.83293 544.31641,243.72537 533.39402,243.72537 C 533.39402,241.03786 508.80177,229.47438 506.92790,229.47438 C 498.27913,220.82561 497.59272,211.99577 490.64106,205.04412 C 490.64106,194.62552 488.60521,186.81746 488.60521,176.54215 C 488.60521,164.74072 486.03374,157.25483 490.64106,148.04018 z M 557.82428,105.28723 C 556.43375,106.67776 547.64500,125.71237 547.64500,133.78920 C 547.64500,141.18247 543.57329,150.13742 543.57329,160.25531 C 543.57329,169.55534 547.64500,180.90564 547.64500,184.68557 C 554.67511,184.68557 561.54648,196.90070 572.07527,196.90070 C 572.07527,200.74907 591.85910,203.00827 596.50553,203.00827 C 606.21989,203.00827 608.33773,193.21192 614.82822,186.72143 C 618.45893,186.72143 629.07921,167.89696 629.07921,162.29117 C 632.65640,162.29117 635.18677,140.62309 635.18677,135.82505 C 635.18677,128.81518 626.57237,114.99552 620.93579,109.35894 C 620.93579,102.17309 608.23726,93.072104 602.61309,93.072104 C 601.95973,93.072104 580.21869,81.022664 580.21869,89.000394 C 570.46879,89.000394 564.27125,97.228524 557.82428,105.28723 z " />
  <path
     id="path1539"
     style="fill:#fa0000;fill-opacity:1.0000000;fill-rule:nonzero;stroke:#000000;stroke-width:1.0000000pt;stroke-linecap:butt;stroke-linejoin:miter;stroke-opacity:1.0000000;"
     d="M 142.50985,416.77305 C 142.50985,412.22872 153.05218,385.87217 160.83255,378.09180 C 169.36338,369.56097 172.21260,364.67589 181.19110,355.69740 C 181.19110,348.27038 209.69307,342.29223 209.69307,337.37470 C 219.79259,337.37470 228.32829,333.30299 238.19504,333.30299 C 243.01065,333.30299 274.84043,331.40902 274.84043,335.33885 C 283.35370,335.33885 297.23483,363.26506 297.23483,371.98424 C 304.61983,379.36924 319.62924,406.62521 319.62924,416.77305 C 327.33580,424.47961 327.77266,450.05885 327.77266,461.56186 C 327.77266,469.83560 331.49396,492.45009 325.73680,498.20725 C 325.73680,511.03232 312.95433,519.13315 305.37825,526.70922 C 305.37825,532.86960 281.21733,540.69086 276.87628,545.03191 C 266.85570,545.03191 253.04387,547.06777 240.23089,547.06777 C 229.35468,547.06777 217.79608,545.03191 207.65721,545.03191 C 200.84045,545.03191 181.68095,541.45006 177.11939,536.88849 C 173.50439,533.27350 156.20284,520.60165 152.68913,520.60165 C 152.68913,510.30943 138.43814,502.24909 138.43814,490.06383 C 138.43814,478.32091 134.36643,466.13776 134.36643,453.41844 C 134.36643,443.91778 134.36643,434.41713 134.36643,424.91647 C 134.36643,417.64983 132.89268,419.17734 142.50985,416.77305 z M 189.33452,465.63357 C 189.33452,456.39018 197.47794,436.11384 197.47794,422.88061 C 200.52839,416.77970 211.72892,398.14425 211.72892,394.37864 C 215.31154,390.79602 234.12333,380.71510 234.12333,380.12766 C 240.43259,380.12766 260.58944,379.06810 260.58944,386.23522 C 268.25697,386.23522 274.84043,397.96255 274.84043,404.55792 C 274.84043,411.47782 281.34926,428.58691 274.84043,435.09574 C 274.84043,445.97764 266.69701,454.24029 266.69701,463.59771 C 266.69701,470.51242 254.48188,480.08179 254.48188,485.99212 C 252.45761,485.99212 236.15918,494.84770 236.15918,496.17139 C 228.37311,496.17139 218.03187,498.20725 207.65721,498.20725 C 199.73484,498.20725 187.29866,494.03681 187.29866,488.02797 C 172.70751,488.02797 186.67762,469.17610 189.33452,465.63357 z " />
  <path
     id="path1541"
     style="fill:#fa0000;fill-opacity:1.0000000;fill-rule:nonzero;stroke:#000000;stroke-width:1.0000000pt;stroke-linecap:butt;stroke-linejoin:miter;stroke-opacity:1.0000000;"
     d="M 490.64106,422.88061 C 494.40258,419.11909 501.79027,397.48042 510.99961,388.27108 C 520.59374,378.67695 522.12872,373.07025 531.35816,363.84082 C 536.34554,358.85344 555.78842,346.25591 555.78842,343.48227 C 565.29800,343.48227 569.80481,337.37470 580.21868,337.37470 C 589.71934,337.37470 599.21999,337.37470 608.72065,337.37470 C 616.05197,337.37470 626.51247,347.55398 635.18677,347.55398 C 645.63001,357.99722 655.48044,369.88350 665.72459,380.12766 C 671.26734,385.67041 682.01143,409.40391 682.01143,416.77305 C 688.19731,422.95893 686.08314,436.43107 686.08314,445.27502 C 686.08314,459.16844 677.81725,471.98607 671.83216,483.95626 C 660.11020,495.67822 658.59584,515.51528 647.40190,526.70922 C 639.84175,534.26936 633.45670,549.10362 622.97164,549.10362 C 617.44007,549.10362 605.94409,553.17533 596.50552,553.17533 C 585.64300,553.17533 578.42622,545.03191 568.00355,545.03191 C 568.00355,542.28106 547.03905,532.81678 543.57329,532.81678 C 539.84936,529.09286 526.17672,520.60165 523.21474,520.60165 C 523.21474,515.64108 503.39177,506.88625 498.78448,502.27896 C 493.35014,496.84462 484.53349,492.18791 484.53349,481.92041 C 479.82943,477.21634 478.42593,463.95458 478.42593,457.49015 C 478.42593,446.54914 482.49764,440.09824 482.49764,433.05989 C 482.49764,427.18519 482.01778,431.50389 490.64106,422.88061 z M 549.68086,400.48621 C 549.68086,402.21171 551.51503,427.15401 545.60915,433.05989 C 545.60915,443.05784 543.57329,451.13683 543.57329,461.56186 C 543.57329,473.94484 544.79829,479.07370 551.71671,485.99212 C 559.08026,485.99212 564.49863,498.20725 572.07526,498.20725 C 572.07526,503.20249 590.10162,506.35067 594.46967,506.35067 C 602.42266,506.35067 611.51890,499.48071 616.86407,494.13554 C 621.67455,494.13554 637.22262,479.85731 637.22262,473.77699 C 641.88652,469.11309 647.40190,455.25648 647.40190,447.31087 C 647.40190,435.65322 641.29433,429.54214 641.29433,420.84476 C 635.59558,420.84476 628.71898,404.55792 618.89993,404.55792 C 618.89993,400.14147 604.13219,392.34279 598.54138,392.34279 C 598.54138,387.01948 580.75609,386.23522 574.11112,386.23522 C 565.12450,386.23522 559.61913,396.51090 549.68086,400.48621 z " />
</svg>
